<svg width="198" height="71" viewBox="0 0 198 71" fill="none" xmlns="http://www.w3.org/2000/svg">
<path d="M0.592 56.136V43.752L30.736 1.8H50.416L21.136 43.752L12.112 41.064H64.624V56.136H0.592ZM36.112 69V56.136L36.688 41.064V29.64H54.64V69H36.112ZM98.1468 70.344C92.3868 70.344 87.2668 68.968 82.7868 66.216C78.3708 63.464 74.8828 59.496 72.3228 54.312C69.7628 49.128 68.4828 42.824 68.4828 35.4C68.4828 27.976 69.7628 21.672 72.3228 16.488C74.8828 11.304 78.3708 7.336 82.7868 4.584C87.2668 1.832 92.3868 0.455996 98.1468 0.455996C103.843 0.455996 108.899 1.832 113.315 4.584C117.795 7.336 121.315 11.304 123.875 16.488C126.435 21.672 127.715 27.976 127.715 35.4C127.715 42.824 126.435 49.128 123.875 54.312C121.315 59.496 117.795 63.464 113.315 66.216C108.899 68.968 103.843 70.344 98.1468 70.344ZM98.1468 54.792C100.195 54.792 101.987 54.152 103.523 52.872C105.123 51.592 106.371 49.544 107.267 46.728C108.163 43.848 108.611 40.072 108.611 35.4C108.611 30.664 108.163 26.888 107.267 24.072C106.371 21.256 105.123 19.208 103.523 17.928C101.987 16.648 100.195 16.008 98.1468 16.008C96.0988 16.008 94.2748 16.648 92.6748 17.928C91.1388 19.208 89.8908 21.256 88.9308 24.072C88.0348 26.888 87.5868 30.664 87.5868 35.4C87.5868 40.072 88.0348 43.848 88.9308 46.728C89.8908 49.544 91.1388 51.592 92.6748 52.872C94.2748 54.152 96.0988 54.792 98.1468 54.792ZM133.53 56.136V43.752L163.674 1.8H183.354L154.074 43.752L145.049 41.064H197.562V56.136H133.53ZM169.05 69V56.136L169.626 41.064V29.64H187.578V69H169.05Z" fill="white"/>
</svg>
