<svg width="1440" height="162" viewBox="0 0 1440 162" fill="none" xmlns="http://www.w3.org/2000/svg">
<g opacity="0.25">
<path d="M-0.999998 54.0001C-0.999998 54.0001 132.5 4.50012 206.5 54.0001C280.5 103.5 313 74.0001 335 54.0001C357 34.0001 403 25 467.5 54.0001C532 83.0001 574.5 68 598 54.0001C621.5 40.0001 700 16.5 735 54.0001C770 91.5001 826 74.0001 873 54C920 34 944 24.5001 1014.5 54C1085 83.4999 1439 54 1439 54" stroke="#FF0000" stroke-width="3"/>
<path d="M-0.999994 74.4446C-0.999994 74.4446 60.5 -88.5555 206.5 74.4446C352.5 237.445 319 125.945 335 74.4446C351 22.9445 362.814 14.1724 467.5 74.4445C572.186 134.717 552.259 121.945 598 74.4445C643.741 26.9445 668 -27.0555 735 74.4445C802 175.945 817.066 118.449 873 74.4445C928.934 30.4405 892 145.945 1014.5 74.4445C1137 2.94446 1439 74.4445 1439 74.4445" stroke="#006629" stroke-width="3"/>
<path d="M5.25284e-06 87.0002C5.25284e-06 87.0002 190 12.5003 207.5 87.0002C225 161.5 289.742 135.99 336 87.0002C382.258 38.0102 431.5 36.5002 468.5 87.0002C505.5 137.5 566 165.5 599 87.0001C632 8.50012 659.5 116 736 87.0001C812.5 58.0001 783.5 49.0002 874 87.0001C964.5 125 892 -65.4997 1015.5 87.0001C1139 239.5 1440 87.0001 1440 87.0001" stroke="#FAF089" stroke-width="3"/>
</g>
</svg>
