<svg width="1440" height="162" viewBox="0 0 1440 162" fill="none" xmlns="http://www.w3.org/2000/svg">
<style>
  body {
    background: #000124;
  }
    @keyframes red {
      from { stroke-dashoffset: 1500; }
      to { stroke-dashoffset: -1500; }
    }
    @keyframes green {
      from { stroke-dashoffset: 1800; }
      to { stroke-dashoffset: -1800; }
    }
    @keyframes yellow {
      from { stroke-dashoffset: 1700; }
      to { stroke-dashoffset: -1700; }
    }
    #red { 
      stroke-dasharray: 1500;
      stroke-dashoffset: 1500;
      animation: red 15s 2s linear alternate infinite;
    }
    #green {
      stroke-dasharray: 1800;
      stroke-dashoffset: 1800;
      animation: green 15s 4s linear alternate infinite;
    }
    #yellow {
      stroke-dasharray: 1700;
      stroke-dashoffset: 1700;
      animation: yellow 15s linear alternate infinite;
    }
  </style>
<g opacity="0.35">
<!-- Red line -->
<path id="red" d="M-0.999998 54C-0.999998 54 132.5 4.49999 206.5 54C280.5 103.5 313 73.9999 335 54C357 34 403 24.9999 467.5 54C532 83 574.5 67.9999 598 53.9999C621.5 40 700 16.4999 735 53.9999C770 91.5 826 74 873 53.9999C920 33.9998 944 24.5 1014.5 53.9999C1085 83.4998 1439 53.9999 1439 53.9999" stroke="#FF0000" stroke-width="2"/>
<!-- Green line -->
<path id="green" d="M-0.999994 74.4445C-0.999994 74.4445 60.5 -88.5556 206.5 74.4444C352.5 237.444 319 125.945 335 74.4444C351 22.9443 362.814 14.1722 467.5 74.4444C572.186 134.717 552.259 121.944 598 74.4444C643.741 26.9443 668 -27.0557 735 74.4444C802 175.944 817.066 118.448 873 74.4444C928.934 30.4404 892 145.944 1014.5 74.4444C1137 2.94434 1439 74.4443 1439 74.4443" stroke="#007A33" stroke-width="2"/>
<!-- Yellow line -->
<path id="yellow" d="M5.25284e-06 87.0001C5.25284e-06 87.0001 190 12.5002 207.5 87.0001C225 161.5 289.742 135.99 336 87C382.258 38.0101 431.5 36.5001 468.5 87C505.5 137.5 566 165.5 599 87C632 8.5 659.5 116 736 87C812.5 58 783.5 49 874 87C964.5 125 892 -65.4998 1015.5 87C1139 239.5 1440 87 1440 87" stroke="#FEDB00" stroke-width="2"/>
</g>
</svg>
