<svg width="168" height="48" viewBox="0 0 168 48" fill="none" xmlns="http://www.w3.org/2000/svg">
<path d="M120.634 29L115.054 16.4H116.494L121.714 28.262H120.922L126.178 16.4H127.528L121.948 29H120.634ZM135.659 29.108C134.711 29.108 133.829 28.952 133.013 28.64C132.209 28.316 131.507 27.866 130.907 27.29C130.319 26.702 129.857 26.024 129.521 25.256C129.197 24.476 129.035 23.624 129.035 22.7C129.035 21.776 129.197 20.93 129.521 20.162C129.857 19.382 130.319 18.704 130.907 18.128C131.507 17.54 132.209 17.09 133.013 16.778C133.817 16.454 134.699 16.292 135.659 16.292C136.607 16.292 137.483 16.454 138.287 16.778C139.091 17.09 139.787 17.534 140.375 18.11C140.975 18.686 141.437 19.364 141.761 20.144C142.097 20.924 142.265 21.776 142.265 22.7C142.265 23.624 142.097 24.476 141.761 25.256C141.437 26.036 140.975 26.714 140.375 27.29C139.787 27.866 139.091 28.316 138.287 28.64C137.483 28.952 136.607 29.108 135.659 29.108ZM135.659 27.92C136.415 27.92 137.111 27.794 137.747 27.542C138.395 27.278 138.953 26.912 139.421 26.444C139.901 25.964 140.273 25.412 140.537 24.788C140.801 24.152 140.933 23.456 140.933 22.7C140.933 21.944 140.801 21.254 140.537 20.63C140.273 19.994 139.901 19.442 139.421 18.974C138.953 18.494 138.395 18.128 137.747 17.876C137.111 17.612 136.415 17.48 135.659 17.48C134.903 17.48 134.201 17.612 133.553 17.876C132.905 18.128 132.341 18.494 131.861 18.974C131.393 19.442 131.021 19.994 130.745 20.63C130.481 21.254 130.349 21.944 130.349 22.7C130.349 23.444 130.481 24.134 130.745 24.77C131.021 25.406 131.393 25.964 131.861 26.444C132.341 26.912 132.905 27.278 133.553 27.542C134.201 27.794 134.903 27.92 135.659 27.92ZM148.423 29V17.552H143.995V16.4H154.183V17.552H149.755V29H148.423ZM158.399 22.034H165.059V23.168H158.399V22.034ZM158.543 27.848H166.121V29H157.211V16.4H165.851V17.552H158.543V27.848Z" fill="white"/>
<path d="M95.8232 10.8037C90.5325 7.29742 83.4507 5.36639 75.8806 5.36639C68.3106 5.36639 61.2282 7.29742 55.938 10.8037C55.2808 11.2394 54.6636 11.6917 54.0863 12.1606C54.5064 12.4021 54.9192 12.6561 55.3241 12.9222C55.6683 13.1503 56.0058 13.3883 56.3362 13.6358C56.6666 13.3883 57.004 13.1503 57.348 12.9222C59.8611 11.2958 62.6133 10.0712 65.5052 9.29251C72.2985 7.44821 79.4622 7.44821 86.2556 9.29251C89.1474 10.0712 91.8996 11.2958 94.4127 12.9222C96.8653 14.548 100.98 17.9982 100.98 22.8383C100.98 27.6787 96.8653 31.1289 94.4127 32.755C91.8996 34.3811 89.1474 35.6056 86.2556 36.3841C82.8768 37.3161 79.386 37.7816 75.8806 37.7675C72.375 37.7816 68.884 37.3161 65.5052 36.3841C63.9768 35.9592 62.4824 35.4206 61.0348 34.7728C60.3272 35.4013 59.5845 35.9894 58.8103 36.5342C63.6712 38.9832 69.6079 40.3105 75.8806 40.3105C83.4504 40.3105 90.5325 38.3795 95.8229 34.8734C100.792 31.5794 103.529 27.3055 103.529 22.8383C103.529 18.3717 100.792 14.0977 95.8227 10.8037H95.8232Z" fill="white"/>
<path d="M16.8498 34.8732C22.1402 38.3795 29.2224 40.3105 36.7924 40.3105C44.3624 40.3105 51.4443 38.3795 56.7347 34.8734C57.3919 34.4375 58.0092 33.9852 58.5864 33.5163C58.1664 33.2747 57.7535 33.0208 57.3483 32.755C57.0043 32.5267 56.6669 32.2887 56.3365 32.0411C56.0061 32.2887 55.6686 32.5268 55.3244 32.755C52.8115 34.3811 50.0593 35.6056 47.1676 36.3841C43.7887 37.3161 40.2977 37.7816 36.7921 37.7675C33.2865 37.7816 29.7955 37.3161 26.4167 36.3841C23.525 35.6055 20.773 34.381 18.2601 32.755C15.8072 31.1289 11.6923 27.6787 11.6923 22.8383C11.6923 17.9982 15.8069 14.548 18.2601 12.9222C20.773 11.2959 23.5252 10.0712 26.4169 9.29251C29.7958 8.36066 33.2868 7.8953 36.7924 7.90942C40.298 7.89531 43.7889 8.36067 47.1679 9.29251C48.6961 9.71749 50.1903 10.2561 51.638 10.9038C52.3455 10.2754 53.0882 9.68751 53.8624 9.14295C49.0015 6.69336 43.0649 5.36639 36.7924 5.36639C29.2224 5.36639 22.1402 7.29742 16.8498 10.8037C11.8804 14.0977 9.14368 18.3717 9.14368 22.8383C9.14368 27.3052 11.8804 31.5794 16.8498 34.8732Z" fill="white"/>
<path d="M76.0343 16.3617H79.8902V23.9498C79.8947 24.6745 79.7779 25.3948 79.5446 26.0812C79.3204 26.7397 78.95 27.3391 78.4611 27.8348C78.0288 28.2954 77.5002 28.6555 76.9129 28.8897C76.0444 29.1926 75.1283 29.3367 74.2085 29.3151C73.5425 29.3112 72.8773 29.2678 72.2165 29.1851C71.5884 29.1248 70.9769 28.9495 70.4125 28.6681C69.904 28.3901 69.4537 28.0173 69.0861 27.5699C68.7117 27.1437 68.4312 26.6438 68.2626 26.1026C68.042 25.4055 67.9214 24.6806 67.9045 23.9498V16.3617H71.7602V24.1305C71.7427 24.4258 71.7838 24.7215 71.8812 25.0008C71.9787 25.2801 72.1305 25.5374 72.3279 25.758C72.7633 26.1343 73.3197 26.3422 73.8958 26.3437C74.4719 26.3453 75.0293 26.1404 75.4668 25.7664C75.6655 25.545 75.818 25.2863 75.9155 25.0054C76.0129 24.7246 76.0533 24.4272 76.0343 24.1305V16.3617ZM26.197 16.3617H29.8055L34.5144 23.4079V16.3617H38.1573V29.0978H34.5146L29.8312 22.1045V29.0975H26.197V16.3617ZM39.8462 16.3617H51.5934V19.5064H47.6523V29.098H43.7878V19.5064H39.8464L39.8462 16.3617ZM53.368 16.3617H56.9764L61.6853 23.4079V16.3617H65.3277V29.0978H61.6853L57.0019 22.1045V29.0975H53.3677L53.368 16.3617ZM82.6028 16.3617H86.4761V29.0978H82.6028V16.3617Z" fill="white"/>
</svg>
