<svg width="162" height="44" viewBox="0 0 162 44" fill="none" xmlns="http://www.w3.org/2000/svg">
<path d="M114.634 27L109.054 14.4H110.494L115.714 26.262H114.922L120.178 14.4H121.528L115.948 27H114.634ZM129.659 27.108C128.711 27.108 127.829 26.952 127.013 26.64C126.209 26.316 125.507 25.866 124.907 25.29C124.319 24.702 123.857 24.024 123.521 23.256C123.197 22.476 123.035 21.624 123.035 20.7C123.035 19.776 123.197 18.93 123.521 18.162C123.857 17.382 124.319 16.704 124.907 16.128C125.507 15.54 126.209 15.09 127.013 14.778C127.817 14.454 128.699 14.292 129.659 14.292C130.607 14.292 131.483 14.454 132.287 14.778C133.091 15.09 133.787 15.534 134.375 16.11C134.975 16.686 135.437 17.364 135.761 18.144C136.097 18.924 136.265 19.776 136.265 20.7C136.265 21.624 136.097 22.476 135.761 23.256C135.437 24.036 134.975 24.714 134.375 25.29C133.787 25.866 133.091 26.316 132.287 26.64C131.483 26.952 130.607 27.108 129.659 27.108ZM129.659 25.92C130.415 25.92 131.111 25.794 131.747 25.542C132.395 25.278 132.953 24.912 133.421 24.444C133.901 23.964 134.273 23.412 134.537 22.788C134.801 22.152 134.933 21.456 134.933 20.7C134.933 19.944 134.801 19.254 134.537 18.63C134.273 17.994 133.901 17.442 133.421 16.974C132.953 16.494 132.395 16.128 131.747 15.876C131.111 15.612 130.415 15.48 129.659 15.48C128.903 15.48 128.201 15.612 127.553 15.876C126.905 16.128 126.341 16.494 125.861 16.974C125.393 17.442 125.021 17.994 124.745 18.63C124.481 19.254 124.349 19.944 124.349 20.7C124.349 21.444 124.481 22.134 124.745 22.77C125.021 23.406 125.393 23.964 125.861 24.444C126.341 24.912 126.905 25.278 127.553 25.542C128.201 25.794 128.903 25.92 129.659 25.92ZM142.423 27V15.552H137.995V14.4H148.183V15.552H143.755V27H142.423ZM152.399 20.034H159.059V21.168H152.399V20.034ZM152.543 25.848H160.121V27H151.211V14.4H159.851V15.552H152.543V25.848Z" fill="white"/>
<path d="M89.8232 8.80353C84.5325 5.29724 77.4507 3.36621 69.8806 3.36621C62.3106 3.36621 55.2282 5.29724 49.938 8.80353C49.2808 9.23924 48.6636 9.69153 48.0863 10.1604C48.5064 10.402 48.9192 10.6559 49.3241 10.922C49.6683 11.1501 50.0058 11.3881 50.3362 11.6356C50.6666 11.3881 51.004 11.1501 51.348 10.922C53.8611 9.29563 56.6133 8.07098 59.5052 7.29233C66.2985 5.44803 73.4622 5.44803 80.2556 7.29233C83.1474 8.07099 85.8996 9.29563 88.4127 10.922C90.8653 12.5478 94.9804 15.998 94.9804 20.8381C94.9804 25.6785 90.8653 29.1287 88.4127 30.7548C85.8996 32.3809 83.1474 33.6054 80.2556 34.3839C76.8768 35.3159 73.386 35.7814 69.8806 35.7673C66.375 35.7814 62.884 35.316 59.5052 34.3839C57.9768 33.9591 56.4824 33.4205 55.0348 32.7727C54.3272 33.4011 53.5845 33.9892 52.8103 34.534C57.6712 36.9831 63.6079 38.3103 69.8806 38.3103C77.4504 38.3103 84.5325 36.3793 89.8229 32.8732C94.7923 29.5792 97.5293 25.3053 97.5293 20.8381C97.5293 16.3715 94.7923 12.0975 89.8227 8.80353H89.8232Z" fill="white"/>
<path d="M10.8498 32.873C16.1402 36.3793 23.2224 38.3103 30.7924 38.3103C38.3624 38.3103 45.4443 36.3793 50.7347 32.8732C51.3919 32.4374 52.0092 31.985 52.5864 31.5161C52.1664 31.2745 51.7535 31.0206 51.3483 30.7548C51.0043 30.5265 50.6669 30.2885 50.3365 30.0409C50.0061 30.2885 49.6686 30.5266 49.3244 30.7548C46.8115 32.3809 44.0593 33.6054 41.1676 34.3839C37.7887 35.3159 34.2977 35.7814 30.7921 35.7673C27.2865 35.7814 23.7955 35.3159 20.4167 34.3839C17.525 33.6053 14.773 32.3808 12.2601 30.7548C9.80721 29.1287 5.69231 25.6785 5.69231 20.8381C5.69231 15.998 9.80695 12.5478 12.2601 10.922C14.773 9.29568 17.5252 8.07104 20.4169 7.29233C23.7958 6.36048 27.2868 5.89512 30.7924 5.90924C34.298 5.89513 37.7889 6.36049 41.1679 7.29233C42.6961 7.71731 44.1903 8.2559 45.638 8.90359C46.3455 8.27521 47.0882 7.68732 47.8624 7.14277C43.0015 4.69318 37.0649 3.36621 30.7924 3.36621C23.2224 3.36621 16.1402 5.29724 10.8498 8.80353C5.8804 12.0975 3.14368 16.3715 3.14368 20.8381C3.14368 25.305 5.8804 29.5792 10.8498 32.873Z" fill="white"/>
<path d="M70.0343 14.3613H73.8902V21.9494C73.8947 22.6741 73.7779 23.3945 73.5446 24.0808C73.3204 24.7393 72.95 25.3388 72.4611 25.8345C72.0288 26.2951 71.5002 26.6552 70.9129 26.8893C70.0444 27.1922 69.1283 27.3363 68.2085 27.3147C67.5425 27.3109 66.8773 27.2675 66.2165 27.1847C65.5884 27.1244 64.9769 26.9492 64.4125 26.6678C63.904 26.3897 63.4537 26.0169 63.0861 25.5695C62.7117 25.1433 62.4312 24.6434 62.2626 24.1022C62.042 23.4051 61.9214 22.6803 61.9045 21.9494V14.3613H65.7602V22.1302C65.7427 22.4254 65.7838 22.7211 65.8812 23.0004C65.9787 23.2797 66.1305 23.537 66.3279 23.7576C66.7633 24.1339 67.3197 24.3418 67.8958 24.3434C68.4719 24.3449 69.0293 24.1401 69.4668 23.7661C69.6655 23.5446 69.818 23.286 69.9155 23.0051C70.0129 22.7242 70.0533 22.4268 70.0343 22.1302V14.3613ZM20.197 14.3613H23.8055L28.5144 21.4075V14.3613H32.1573V27.0974H28.5146L23.8312 20.1041V27.0971H20.197V14.3613ZM33.8462 14.3613H45.5934V17.506H41.6523V27.0977H37.7878V17.506H33.8464L33.8462 14.3613ZM47.368 14.3613H50.9764L55.6853 21.4075V14.3613H59.3277V27.0974H55.6853L51.0019 20.1041V27.0971H47.3677L47.368 14.3613ZM76.6028 14.3613H80.4761V27.0974H76.6028V14.3613Z" fill="white"/>
</svg>
