<svg width="189" height="80" viewBox="0 0 189 80" fill="none" xmlns="http://www.w3.org/2000/svg">
<path d="M158.865 18.0059C150.093 12.1621 138.352 8.94373 125.802 8.94373C113.252 8.94373 101.51 12.1621 92.7394 18.0059C91.6498 18.7321 90.6265 19.4859 89.6694 20.2674C90.3659 20.67 91.0503 21.0932 91.7216 21.5367C92.2922 21.9169 92.8517 22.3135 93.3995 22.7261C93.9472 22.3136 94.5066 21.9169 95.077 21.5367C99.2433 18.8261 103.806 16.785 108.601 15.4873C119.863 12.4134 131.74 12.4134 143.003 15.4873C147.797 16.785 152.36 18.8261 156.526 21.5367C160.592 24.2464 167.415 29.9967 167.415 38.0636C167.415 46.1309 160.592 51.8812 156.526 54.5914C152.36 57.3016 147.797 59.3424 143.003 60.6399C137.401 62.1933 131.614 62.969 125.802 62.9455C119.99 62.9691 114.202 62.1933 108.601 60.6399C106.067 59.9318 103.589 59.0341 101.189 57.9545C100.016 59.002 98.7848 59.9821 97.5013 60.8901C105.56 64.9718 115.403 67.1839 125.802 67.1839C138.352 67.1839 150.093 63.9655 158.864 58.1221C167.103 52.6321 171.641 45.5089 171.641 38.0636C171.641 30.6192 167.103 23.4959 158.864 18.0059H158.865Z" fill="white"/>
<path d="M27.9352 58.1217C36.7061 63.9655 48.4476 67.1839 60.9979 67.1839C73.5482 67.1839 85.2893 63.9655 94.0602 58.1221C95.1498 57.3956 96.1731 56.6417 97.1302 55.8602C96.4337 55.4575 95.7492 55.0344 95.0775 54.5914C94.5071 54.211 93.9477 53.8142 93.4 53.4015C92.8522 53.8142 92.2927 54.211 91.7221 54.5914C87.5559 57.3016 82.9931 59.3423 78.1989 60.6399C72.5971 62.1933 66.8094 62.969 60.9975 62.9455C55.1856 62.969 49.3979 62.1933 43.7961 60.6399C39.002 59.3422 34.4395 57.3015 30.2733 54.5914C26.2067 51.8812 19.3846 46.1309 19.3846 38.0636C19.3846 29.9967 26.2063 24.2464 30.2733 21.5367C34.4395 18.8262 39.0022 16.7851 43.7965 15.4873C49.3984 13.9342 55.1861 13.1586 60.9979 13.1821C66.8098 13.1586 72.5975 13.9342 78.1994 15.4873C80.7331 16.1956 83.2103 17.0932 85.6104 18.1727C86.7834 17.1254 88.0147 16.1456 89.2983 15.238C81.2394 11.1553 71.3971 8.94373 60.9979 8.94373C48.4476 8.94373 36.7061 12.1621 27.9352 18.0059C19.6965 23.4959 15.1593 30.6192 15.1593 38.0636C15.1593 45.5084 19.6965 52.6321 27.9352 58.1217Z" fill="white"/>
<path d="M126.057 27.2691H132.45V39.9159C132.457 41.1237 132.263 42.3244 131.877 43.4682C131.505 44.5657 130.891 45.5649 130.08 46.391C129.363 47.1586 128.487 47.7588 127.514 48.1491C126.074 48.6539 124.555 48.8941 123.03 48.8581C121.926 48.8517 120.823 48.7794 119.727 48.6415C118.686 48.5409 117.672 48.2489 116.737 47.7798C115.894 47.3164 115.147 46.6951 114.537 45.9494C113.917 45.2391 113.452 44.4059 113.172 43.504C112.806 42.342 112.607 41.134 112.578 39.9159V27.2691H118.971V40.2172C118.942 40.7092 119.01 41.2021 119.172 41.6676C119.333 42.1331 119.585 42.562 119.912 42.9295C120.634 43.5568 121.556 43.9032 122.511 43.9058C123.467 43.9084 124.391 43.567 125.116 42.9437C125.445 42.5746 125.698 42.1435 125.86 41.6754C126.021 41.2072 126.088 40.7115 126.057 40.2172V27.2691ZM43.4319 27.2691H49.4144L57.2212 39.0128V27.2691H63.2608V48.4959H57.2216L49.457 36.8404V48.4954H43.4319V27.2691ZM66.0607 27.2691H85.5365V32.5103H79.0025V48.4963H72.5956V32.5103H66.0612L66.0607 27.2691ZM88.4785 27.2691H94.4609L102.268 39.0128V27.2691H108.306V48.4959H102.268L94.5031 36.8404V48.4954H88.478L88.4785 27.2691ZM136.947 27.2691H143.368V48.4959H136.947V27.2691Z" fill="white"/>
</svg>
