<svg xmlns="http://www.w3.org/2000/svg" viewBox="0 0 374.998 151.2246">
<defs>
    <style>.cls-0{fill:#000;}.cls-1{fill:#006629;}.cls-2{fill:red;}.cls-3{fill:#ff0;}</style>
</defs>
<title>ntnui</title>
<g id="Layer_2" data-name="Layer 2">
<g id="Layer_1-2" data-name="Layer 1">
<path class="cls-0" d="M113.82759,151.2246c28.0996,0,53.8159-6.7676,73.67141-17.9775,19.85549,11.2099,45.57229,17.9775,73.67189,17.9775,62.8642,0,113.82711-33.8525,113.82711-75.6123S324.03509,0,261.17089,0c-28.0996,0-53.8164,6.7676-73.67189,17.977C167.64349,6.7676,141.92719,0,113.82759,0,50.96239,0,0,33.8525,0,75.6123S50.96239,151.2246,113.82759,151.2246Z"/>
<path class="cls-1" d="M336.34279,30.1484c-19.9415-13.2466-46.6377-20.5415-75.1719-20.5415-28.5352,0-55.2315,7.2949-75.17289,20.5415q-3.7155,2.46825-6.98041,5.1255c1.5947.9273,3.1621,1.8775,4.6665,2.877,1.184.7861,2.4712,1.6875,3.81491,2.6963,1.34379-1.0088,2.63089-1.9102,3.81449-2.6963a108.40883,108.40883,0,0,1,30.748-13.7115,148.963,148.963,0,0,1,78.2178,0,108.41009,108.41009,0,0,1,30.748,13.7115c9.2451,6.1421,24.7569,19.1757,24.7569,37.4614,0,18.2861-15.5118,31.3193-24.7569,37.4629a108.41909,108.41909,0,0,1-30.748,13.7099,144.57832,144.57832,0,0,1-39.1084,5.2256,144.58566,144.58566,0,0,1-39.1094-5.2256,119.65733,119.65733,0,0,1-16.8516-6.0869,94.70035,94.70035,0,0,1-8.3847,6.6534c18.3232,9.2529,40.7011,14.2666,64.3457,14.2666,28.5342,0,55.2304-7.295,75.1719-20.5411,18.7324-12.4433,29.0488-28.5898,29.0488-45.4648C365.39159,58.7378,355.07519,42.5918,336.34279,30.1484Z"/>
<path class="cls-2" d="M38.65529,121.0771c19.9414,13.2461,46.6381,20.5411,75.1723,20.5411s55.231-7.295,75.17241-20.5411q3.71623-2.4696,6.98039-5.1259c-1.5947-.9268-3.1611-1.878-4.6669-2.876-1.1836-.7871-2.4707-1.6875-3.81449-2.6973-1.34371,1.0098-2.63091,1.9102-3.81491,2.6973a108.4164,108.4164,0,0,1-30.7466,13.7099,144.59462,144.59462,0,0,1-39.1099,5.2256,144.59127,144.59127,0,0,1-39.1098-5.2256,108.42465,108.42465,0,0,1-30.7471-13.7099c-9.2461-6.1436-24.7569-19.1768-24.7569-37.4629,0-18.2857,15.5108-31.3193,24.7569-37.4614a108.41565,108.41565,0,0,1,30.7471-13.7115,144.61487,144.61487,0,0,1,39.1098-5.2255,144.61823,144.61823,0,0,1,39.1099,5.2255,119.77064,119.77064,0,0,1,16.8511,6.0865,94.53447,94.53447,0,0,1,8.3842-6.6519c-18.3227-9.2539-40.7011-14.2671-64.3452-14.2671-28.5342,0-55.2309,7.2949-75.1723,20.5415-18.732,12.4434-29.0484,28.5894-29.0484,45.4639C9.60689,92.4873,19.92329,108.6338,38.65529,121.0771Z"/>
<path class="cls-3" d="M73.88909,51.145h13.6021l17.7505,26.6187V51.145h13.7314V99.2588h-13.7314l-17.6538-26.418v26.418H73.88909Z"/>
<path class="cls-3" d="M125.33979,51.145h44.2803V63.0254h-14.8565V99.2588h-14.5668V63.0254h-14.857Z"/>
<path class="cls-3" d="M176.30809,51.145h13.603l17.75,26.6187V51.145h13.7305V99.2588h-13.7305l-17.6543-26.418v26.418h-13.6987Z"/>
<path class="cls-3" d="M261.749,51.145h14.53519V79.811a24.5939,24.5939,0,0,1-1.3028,8.0518,17.44458,17.44458,0,0,1-4.084,6.6255,16.26614,16.26614,0,0,1-5.8359,3.9843,28.83952,28.83952,0,0,1-10.1943,1.6075,63.24578,63.24578,0,0,1-7.5088-.4912,19.36283,19.36283,0,0,1-6.8008-1.9532,17.08224,17.08224,0,0,1-5-4.1484,15.29881,15.29881,0,0,1-3.1035-5.543,29.25994,29.25994,0,0,1-1.3496-8.1333V51.145h14.5332V80.4936a8.47553,8.47553,0,0,0,2.1396,6.1485,9.06424,9.06424,0,0,0,11.833.0322,8.455,8.455,0,0,0,2.13871-6.1807Z"/>
<path class="cls-3" d="M286.50969,51.145h14.5997V99.2588h-14.5997Z"/>
</g>
</g>
</svg>